<svg xmlns="http://www.w3.org/2000/svg" xmlns:xlink="http://www.w3.org/1999/xlink" width="500" height="500" viewBox="0 0 500 500"><defs><clipPath id="a"><path d="M247.7,270.4a14.51,14.51,0,0,0,14.5,14.5H422.8a14.51,14.51,0,0,0,14.5-14.5V172.7H247.7Z"></path></clipPath><clipPath id="g"><path d="M247.7,270.4a14.51,14.51,0,0,0,14.5,14.5H422.8a14.51,14.51,0,0,0,14.5-14.5V172.7H247.7Z" transform="translate(-289.8 -191.4)"></path></clipPath><clipPath id="h"><path d="M247.7,270.4a14.51,14.51,0,0,0,14.5,14.5H422.8a14.51,14.51,0,0,0,14.5-14.5V172.7H247.7Z" transform="translate(-399.9 -229.8)"></path></clipPath></defs><rect width="500" height="500" fill="#fff"></rect><path d="M147.7,284.6l-.4-.5,2.7-2.6.4.5Zm5.4-5.2-.4-.4c.9-.9,1.8-1.8,2.6-2.7l.5.4Zm5.3-5.4-.5-.4c.8-.9,1.7-1.9,2.5-2.8l.5.4C160,272.1,159.2,273.1,158.4,274Zm4.9-5.7-.5-.4c.8-1,1.6-1.9,2.3-2.9l.5.4C164.8,266.4,164.1,267.4,163.3,268.3Zm4.6-5.9-.5-.4c.7-1,1.5-2,2.2-3l.5.4C169.4,260.4,168.6,261.4,167.9,262.4Zm4.3-6.1-.5-.4c.7-1,1.4-2.1,2.1-3.1l.5.3C173.6,254.2,172.9,255.2,172.2,256.3Zm34.3-4.4a9.737,9.737,0,0,1-3.4-.6l.2-.6a8.534,8.534,0,0,0,3.1.6h.4v.6Zm4.1-1-.3-.5a7.472,7.472,0,0,0,2.5-2.5l.5.3A7,7,0,0,1,210.6,250.9Zm-34.3-.9-.5-.3c.7-1.1,1.3-2.1,1.9-3.2l.5.3C177.6,247.8,177,248.9,176.3,250Zm23.6-.9a14.769,14.769,0,0,1-2.1-3.2l.6-.2a10.755,10.755,0,0,0,1.9,3.1Zm14.5-4.7h-.6v-.2a6.264,6.264,0,0,0-.6-2.7l-.3-.6.5-.3a4.875,4.875,0,0,1,.3.7,7.173,7.173,0,0,1,.6,2.9Zm-34-.7-.5-.4a17.236,17.236,0,0,1,2.7-2.7l.4.5A31.9,31.9,0,0,0,180.4,243.7Zm16.5-1.6a10.868,10.868,0,0,1-.1-1.8,13.4,13.4,0,0,1,.1-2l.6.1a12.1,12.1,0,0,0-.1,1.9,9.149,9.149,0,0,0,.1,1.7ZM186,238.9l-.3-.5a36.524,36.524,0,0,1,3.4-1.8l.2.6A25.467,25.467,0,0,0,186,238.9Zm24.5-.6a14.026,14.026,0,0,0-3.2-1.8l.2-.6a10.588,10.588,0,0,1,3.3,1.9ZM192.8,236l-.2-.6a24.087,24.087,0,0,1,3.7-.7l.1.6A22.87,22.87,0,0,0,192.8,236Zm11-.5a22.061,22.061,0,0,0-3.7-.4v-.6a23.278,23.278,0,0,1,3.8.4Zm-5.4-.7-.6-.2a15.443,15.443,0,0,1,1.7-3.4l.5.3A24.94,24.94,0,0,0,198.4,234.8Zm3.8-6.2-.5-.4.6-.6a21.1,21.1,0,0,1,2.3-1.9l.4.5a20,20,0,0,0-2.2,1.9A2.651,2.651,0,0,0,202.2,228.6Zm6-4.4-.3-.6a21.3,21.3,0,0,1,3.5-1.4l.2.6A34.542,34.542,0,0,0,208.2,224.2Zm7-2.3-.2-.6c1.2-.3,2.4-.6,3.6-1l.2.6C217.7,221.3,216.4,221.6,215.2,221.9Zm7.2-2-.2-.6c1.2-.4,2.4-.8,3.5-1.2l.2.6C224.9,219.1,223.7,219.5,222.4,219.9Zm7.1-2.5-.2-.6c1.2-.5,2.3-.9,3.5-1.4l.2.6C231.9,216.5,230.7,216.9,229.5,217.4Zm6.9-3-.3-.6,3.4-1.6.3.6Zm6.8-3.3-.3-.6,3.4-1.6.3.6Zm6.7-3.2-.3-.6,3.4-1.6.3.6Zm6.8-3.3-.3-.6,3.4-1.6.3.6Zm6.7-3.3-.3-.6,3.4-1.6.3.6Z" fill="#9192ff"></path><path d="M251.9,85.1v.4h82.2c-.2-6.8-6.1-12.2-13.3-12.2a15.062,15.062,0,0,0-6.4,1.5,14.421,14.421,0,0,0-7.1-13c-7-4.1-16.2-1.3-20.5,6.2a17.242,17.242,0,0,0-2.2,7.1,29.186,29.186,0,0,0-12.2-2.5C261.1,72.5,251.9,78.1,251.9,85.1Z" fill="#ebebff"></path><path d="M115.2,277.1H47.4v-.2c.2-5.7,5.1-10.2,11.2-10.2a12.159,12.159,0,0,1,5,1.1,12.134,12.134,0,0,1,5.9-10.5,11.3,11.3,0,0,1,9-1.1,12.881,12.881,0,0,1,8,6.3,13.674,13.674,0,0,1,1.8,5.6,24.135,24.135,0,0,1,9.8-1.9c9.4,0,17,4.7,17,10.5v.3Zm-67.3-.4h66.9v-.1c0-5.6-7.4-10.1-16.6-10.1a24.308,24.308,0,0,0-9.9,2l-.3.1v-.3a13.087,13.087,0,0,0-9.5-11.8,11.428,11.428,0,0,0-8.7,1.1,11.753,11.753,0,0,0-5.7,10.5v.4l-.3-.2a11.252,11.252,0,0,0-5.1-1.2C52.8,267.1,48.2,271.3,47.9,276.7Z" fill="#9192ff"></path><g clip-path="url(#a)"><path d="M247.7,270.4a14.51,14.51,0,0,0,14.5,14.5H422.8a14.51,14.51,0,0,0,14.5-14.5V172.7H247.7Z" fill="#fff"></path></g><g clip-path="url(#a)"><path d="M237.8,197.6a19.359,19.359,0,0,1,16.9-13.1,19.83,19.83,0,0,1,18.8,10.4,11.753,11.753,0,0,1,10.1,5.7,10.754,10.754,0,0,1-.4,11.2,15.829,15.829,0,0,1,11.4,8.3,15.256,15.256,0,0,1-.3,13.8,18.3,18.3,0,0,1,17.3.6,17.046,17.046,0,0,1,8.2,14.8,18.14,18.14,0,0,1,31.2,1.4,28.953,28.953,0,0,1,20.3-18.4,30.405,30.405,0,0,1,27,6.8c10.6,1.7,18.3,13.1,15.5,23.1a21.313,21.313,0,0,1,7.4,19.6,21.8,21.8,0,0,1-13.4,16.3L225.9,298l-15.5-69.4Z" fill="#d1d1ff"></path></g><g opacity="0.8" clip-path="url(#a)"><path d="M234.9,220.6a18.808,18.808,0,0,1,16.3-13.1,19.064,19.064,0,0,1,18.2,10.4,11.045,11.045,0,0,1,9.4,16.9,15.135,15.135,0,0,1,10.7,22.1,16.779,16.779,0,0,1,24.6,15.3,17.279,17.279,0,0,1,30.2,1.4A27.788,27.788,0,0,1,389.9,262c10.2,1.6,17.7,13.1,15,23.1a21.27,21.27,0,0,1-5.8,35.9H223.3l-14.9-69.4Z" fill="#fff"></path></g><g clip-path="url(#a)"><path d="M374.6,175.8c-52.7,49.5-90,62.9-137,67.6l-3.1,50,49.4,16.9C327,309,368.4,246.6,394,193l-19.4-17.2" fill="#fff2e0" opacity="0.7"></path><path d="M382,176.4c-8.6,10.1-21.5,19.8-36.7,32.9l20.8-8.5c-2.5,4.2-6.3,10.1-8.3,12.7,4.8-2.2,12.5-7.1,15-9.7,0,3.6-4.3,9.6-6.2,12.9,11.1-9.5,21.2-21.1,24.4-31.2l-9-9.1" fill="#ffa121"></path><path d="M384.5,176.9c-5.1,6.7-12.6,13.2-21.6,21.9L375,193a81.063,81.063,0,0,1-5,8.4,42.755,42.755,0,0,0,8.8-6.5c0,2.4-2.6,6.3-3.7,8.5,6.5-6.3,12.5-14,14.5-20.7l-5.1-5.8" fill="#fff" opacity="0.4"></path></g><g clip-path="url(#a)"><path d="M305.8,211.3c.1,1.6,0,4.2-1.6,5.1-2.6,1.5-4.7-2.2-5.6-4-1.1-2.2-.9-4.9,1.7-5.9C303.8,205.2,305.7,208.4,305.8,211.3Z" fill="#d1d1ff"></path></g><g clip-path="url(#a)"><path d="M429.6,258.9c.1,1.6,0,4.2-1.6,5.1-2.6,1.5-4.7-2.2-5.6-4-1.1-2.2-.9-4.9,1.7-5.9C427.6,252.8,429.5,255.9,429.6,258.9Z" fill="#d1d1ff"></path></g><g transform="translate(289.8 191.4)" clip-path="url(#g)"><circle cx="2.2" cy="2.2" r="2.2" fill="#d1d1ff"></circle></g><g transform="matrix(0.896, -0.445, 0.445, 0.896, 398.787, 231.61)" clip-path="url(#h)"><circle cx="3.3" cy="3.3" r="3.3" fill="#d1d1ff"></circle></g><path d="M422.8,285.2H262.2a14.831,14.831,0,0,1-14.8-14.8V172.3H437.6v98.1A14.9,14.9,0,0,1,422.8,285.2ZM248,173v97.4a14.19,14.19,0,0,0,14.2,14.2H422.8A14.19,14.19,0,0,0,437,270.4V173Z" fill="#9192ff"></path><path d="M422.8,134.8H262.2a14.51,14.51,0,0,0-14.5,14.5v23.4H437.3V149.3A14.51,14.51,0,0,0,422.8,134.8Z" fill="#fff"></path><path d="M437.6,173H247.4V149.3a14.831,14.831,0,0,1,14.8-14.8H422.8a14.831,14.831,0,0,1,14.8,14.8V173ZM248,172.3H437V149.2A14.19,14.19,0,0,0,422.8,135H262.2A14.19,14.19,0,0,0,248,149.2v23.1Z" fill="#9192ff"></path><circle cx="7.9" cy="7.9" r="7.9" transform="translate(257.465 159.877) rotate(-78.527)" fill="#d1d1ff"></circle><circle cx="7.9" cy="7.9" r="7.9" transform="translate(282.2 145.8)" fill="#fff"></circle><path d="M290.1,162a8.2,8.2,0,1,1,8.2-8.2A8.11,8.11,0,0,1,290.1,162Zm0-15.9a7.6,7.6,0,1,0,7.6,7.6A7.6,7.6,0,0,0,290.1,146.1Z" fill="#9192ff"></path><path d="M350.5,161.3H318.9a7.6,7.6,0,0,1-7.6-7.6h0a7.6,7.6,0,0,1,7.6-7.6h31.6a7.6,7.6,0,0,1,7.6,7.6h0A7.6,7.6,0,0,1,350.5,161.3Z" fill="#fff"></path><path d="M350.5,161.6H318.9a7.9,7.9,0,0,1,0-15.8h31.6a7.9,7.9,0,1,1,0,15.8Zm-31.6-15.1a7.3,7.3,0,0,0,0,14.6h31.6a7.3,7.3,0,0,0,0-14.6Z" fill="#9192ff"></path><path d="M414.9,117.5c-12.7,11.1-34.5,3.4-41.3,12.3L393,145.2Z" fill="#3335cf"></path><path d="M373.7,129.8h0a7.532,7.532,0,0,0,1.4,7.6l13.7,15.7,4.3-7.9Z" fill="#d1d1ff"></path><path d="M443.6,140.2c-7.9,14.9,4.6,34.4-2.5,43l-19.4-15.4Z" fill="#3335cf"></path><path d="M441.1,183.2h0a7.587,7.587,0,0,1-7.7.4l-18.5-9.8,6.8-6Z" fill="#d1d1ff"></path><path d="M453.5,98.5l-17.3,6.3,15.1,11.9Z" fill="#1b1b43"></path><path d="M451.3,116.7c-2.4,27.3-22.6,52.8-47.1,67L381.8,166c9.4-29.5,26.8-50.6,54.4-61.2Z" fill="#c5c5ff"></path><path d="M381.8,166l-9.7,6.7,27.8,22,4.3-11Z" fill="#3335cf"></path><circle cx="10.4" cy="10.4" r="10.4" transform="translate(418.152 119.389) rotate(-6.782)" fill="#fff"></circle><path d="M430.5,135.8l-.1-.6a8.47,8.47,0,0,0,1.7-.4l.2.6A8.025,8.025,0,0,1,430.5,135.8Zm-1.9,0a6.971,6.971,0,0,1-1.9-.6l.3-.6a8.447,8.447,0,0,0,1.7.5Zm5.5-1.4-.4-.5a15.379,15.379,0,0,0,1.3-1.2l.5.4A5.844,5.844,0,0,1,434.1,134.4Zm-9.1-.2a5.706,5.706,0,0,1-1.3-1.4l.5-.4a7.409,7.409,0,0,0,1.2,1.3Zm11.3-2.3-.6-.3a4.924,4.924,0,0,0,.6-1.7l.6.1A6.033,6.033,0,0,1,436.3,131.9Zm-13.5-.9a6.456,6.456,0,0,1-.4-1.9l.6-.1a8.47,8.47,0,0,0,.4,1.7Zm13.7-2.9a5.663,5.663,0,0,0-.3-1.8l.6-.2a12.859,12.859,0,0,1,.4,1.9Zm-13.4-.8-.6-.1a6.971,6.971,0,0,1,.6-1.9l.6.3A4.923,4.923,0,0,0,423.1,127.3Zm12.3-2.5a5.262,5.262,0,0,0-1.2-1.4l.4-.5a6.39,6.39,0,0,1,1.3,1.5Zm-10.8-.7-.5-.4a6.39,6.39,0,0,1,1.5-1.3l.4.5A4.071,4.071,0,0,0,424.6,124.1Zm8.1-1.7a4.923,4.923,0,0,0-1.7-.6l.1-.6a5.462,5.462,0,0,1,1.8.6Zm-5.2-.3-.2-.6a12.86,12.86,0,0,1,1.9-.4v.6A13.638,13.638,0,0,0,427.5,122.1Z" fill="#9192ff"></path><path d="M378.4,193.3h0a1.942,1.942,0,0,1-.3-2.8l19-24.1a1.942,1.942,0,0,1,2.8-.3h0a1.942,1.942,0,0,1,.3,2.8l-19,24.1A2.031,2.031,0,0,1,378.4,193.3Z" fill="#1b1b43"></path><path d="M413.1,407.5h-3.8v-.6h3.8Zm-7.5,0h-3.8v-.6h3.8Zm-7.5,0h-3.8v-.6h3.8Zm-7.5,0h-3.8v-.6h3.8Zm-7.5,0h-3.8v-.6h3.8Zm-7.5,0h-3.8v-.6h3.8Zm-7.5,0h-3.8v-.6h3.8Zm-7.5,0h-3.8v-.6h3.8Zm-7.5,0h-3.8v-.6h3.8Zm-7.5,0h-3.8v-.6h3.8Zm-7.5,0a12.088,12.088,0,0,1-3.8-.6l.2-.6a10.88,10.88,0,0,0,3.6.6Zm75.4,0v-.6a11.488,11.488,0,0,0,3.6-.7l.2.6A15.949,15.949,0,0,1,413.5,407.5ZM330.9,405a11.559,11.559,0,0,1-2.6-2.8l.5-.4a10.3,10.3,0,0,0,2.5,2.6Zm89.7-.2-.4-.5a10.148,10.148,0,0,0,2.4-2.7l.5.3A8.767,8.767,0,0,1,420.6,404.8Zm-93.9-6a12.574,12.574,0,0,1-.5-3.3V395h.6v.5a10.551,10.551,0,0,0,.4,3.1Zm98-.3-.6-.2a13.328,13.328,0,0,0,.3-2.8v-.8h.6v.8A7.687,7.687,0,0,1,424.7,398.5Zm-97.9-7.3h-.6v-3.8h.6Zm98.3-.3h-.6v-3.8h.6Zm-98.3-7.2h-.6V380h.6Zm98.3-.3h-.6v-3.8h.6Zm-98.3-7.2h-.6v-3.8h.6Zm98.3-.3h-.6v-3.8h.6Zm-98.3-7.2h-.6V365h.6Zm98.3-.3h-.6v-3.8h.6Zm-98.3-7.2h-.6v-3.8h.6Zm98.3-.3h-.6v-3.8h.6Zm-98.3-7.2h-.6v-2.5a5.7,5.7,0,0,1,.1-1.3l.6.1c0,.4-.1.8-.1,1.2Zm98.3-.3h-.6v-2.2a7.568,7.568,0,0,0-.1-1.5l.6-.1a8.6,8.6,0,0,1,.1,1.6Zm-97.2-6.9-.6-.3a13.611,13.611,0,0,1,2.1-3.2l.5.4A11.688,11.688,0,0,0,327.9,346.5Zm95.4-.3a10.185,10.185,0,0,0-2.1-3l.4-.4a10.98,10.98,0,0,1,2.2,3.1Zm-90.6-4.9-.3-.5a14.009,14.009,0,0,1,3.6-1.3l.1.6A11.55,11.55,0,0,0,332.7,341.3Zm85.6-.2a10.978,10.978,0,0,0-3.5-1.1l.1-.6a10.924,10.924,0,0,1,3.6,1.2Zm-7.2-1.2h-3.8v-.6h3.8Zm-7.5,0h-3.8v-.6h3.8Zm-7.5,0h-3.8v-.6h3.8Zm-7.5,0h-3.8v-.6h3.8Zm-7.5,0h-3.8v-.6h3.8Zm-7.5,0h-3.8v-.6h3.8Zm-7.5,0h-3.8v-.6h3.8Zm-7.5,0h-3.8v-.6h3.8Zm-7.5,0h-3.8v-.6h3.8Zm-7.5,0h-3.8v-.6h3.8Z" fill="#9192ff"></path><path d="M380.7,396.7H352A34.718,34.718,0,0,1,317.3,362h0A34.718,34.718,0,0,1,352,327.3h28.8A34.718,34.718,0,0,1,415.5,362h0A34.8,34.8,0,0,1,380.7,396.7Z" fill="#9192ff"></path><rect width="10.6" height="21.6" transform="translate(334.3 367.8)" fill="#fff"></rect><rect width="10.6" height="20.9" transform="translate(352.1 368.5)" fill="#fff"></rect><rect width="10.6" height="31.8" transform="translate(369.9 357.5)" fill="#fff"></rect><rect width="10.6" height="41.2" transform="translate(387.8 348.2)" fill="#fff"></rect><rect width="57.1" height="2.5" transform="translate(337.8 337)" fill="#fff"></rect><path d="M164,259.4a28.876,28.876,0,0,0-10.9-15.6l-2.1-1.6,1.8,37.1,13.8-10.7Z" fill="#ffa121"></path><path d="M208.5,304.2l-3.1-6a6.157,6.157,0,0,0-3.8-3.1l-9.1-2.5-23.3-14.9-2.6-9.1-13.8,10.7.1,2.6a13.865,13.865,0,0,0,8.3,11.9l22.6,9.8,10.7.2c3.5,1.2,4.7,4.2,6.8,3.1.8-.4-2.3-5.6-2.3-5.6l5.2,5.7Z" fill="#ffbc96"></path><rect width="4.7" height="0.7" transform="translate(165.993 281.045) rotate(-49.664)" fill="#d28572"></rect><path d="M168,319.2l16.9-1.5c11-1,20.6,7.9,21.2,19.6l3.8,83.5-23.4.7Z" fill="#26289c"></path><path d="M188.5,420.7l.7,23h34.6l-17.1-14.2-1-11.1Z" fill="#1b1b43"></path><rect width="9.2" height="1.4" transform="matrix(0.792, -0.61, 0.61, 0.792, 199.02, 434.577)" fill="#fff"></rect><path d="M180.6,420.7l.7,23h34.6l-17-14.2-1.1-11.1Z" fill="#d1d1ff"></path><rect width="9.2" height="1.4" transform="matrix(0.792, -0.61, 0.61, 0.792, 191.123, 434.587)" fill="#fff"></rect><path d="M206.4,422.9H177.7L157.3,360l-2.9-8.8-40.8-.2a11.418,11.418,0,0,1-7-2.9,16.979,16.979,0,0,1-5.6-15l3.6-25.6,60.7,7.9a27.322,27.322,0,0,1,23.2,21.5Z" fill="#3335cf"></path><path d="M162.9,351.3l-5.6,8.8-2.9-8.8Z" fill="#1b1b43"></path><path d="M155.4,302.9l-.9,3.6-2.1,8.8-28.3-1.2-20.4-.8a8.71,8.71,0,0,1-8.2-10.5l9.5-45.7a17.308,17.308,0,0,1,15.4-14.6l23.3-2.4,7.5,2.1c7.3,3.9,7.4,11.1,7.7,15.8C160.3,278.4,158.4,290.8,155.4,302.9Z" fill="#ffa121"></path><path d="M136.2,301.5c-.3,1.2,18.6,3.8,18.3,5l-2.1,8.8-28.3-1.2c-9.9-7.5-13.6-23.7-17.2-44Z" fill="#1b1b43" opacity="0.3"></path><path d="M130.5,253.3a19.574,19.574,0,0,0,4.2,3.4,13.381,13.381,0,0,0,5.1,1.7,8.049,8.049,0,0,0,5.1-.8,5.261,5.261,0,0,0,2.8-4.2h.3a5.189,5.189,0,0,1-.7,2.7,6.365,6.365,0,0,1-2,2,8.849,8.849,0,0,1-5.5.9,14.042,14.042,0,0,1-5.3-1.9,14.529,14.529,0,0,1-4.1-3.7Z" fill="#1b1b43"></path><path d="M159.4,281.2h-.5a120.32,120.32,0,0,0-1.6-26.3l.5-.1A120.873,120.873,0,0,1,159.4,281.2Z" fill="#1b1b43"></path><rect width="26.6" height="5.3" transform="translate(180.8 306.6)" fill="#1b1b43"></rect><path d="M253.6,311.9H200.1l24.6-47.1h53.5Z" fill="#9192ff"></path><path d="M136.4,202.4c-6.3-6.2-18.1-3.6-17.9,6.8-12.9,3.4-13.6,17.6-8.4,24.8l4.5.4,1-5.3,2.6,5.4,12.5.8Z" fill="#1b1b43"></path><path d="M146.9,225.5v20.2a6.628,6.628,0,0,1-8.3,5.9,13.388,13.388,0,0,1-10-13l.1-13.2h18.2Z" fill="#ffbc96"></path><path d="M146.9,234.1v11.7c-5.3-.9-11.4-7-12.9-13.6Z" fill="#1b1b43"></path><path d="M157.6,227a35.743,35.743,0,0,1-1.1,4.7c-1.6,5-4.4,9.2-9.5,8.4-11.9-1.7-18.5-14-18.5-14l8.1-9.3,5.5-7.4,16.4,7.1A71.355,71.355,0,0,1,157.6,227Z" fill="#ffbc96"></path><path d="M132,223c5.2-.2,9.3-2.8,11-10.4,0,0,12.2,10.5,18.2,4.9,5-4.7-3.5-15.5-17.5-16.8a19.733,19.733,0,0,0-14.2,4.3c-6.8,5.5-7.5,18.1-1.1,22.5Z" fill="#1b1b43"></path><path d="M125.9,209.8a5.652,5.652,0,0,1,.5-3.8,8.061,8.061,0,0,1,2.5-3,7.489,7.489,0,0,1,3.5-1.6,6.164,6.164,0,0,1,3.8.3A19.331,19.331,0,0,0,133,203a17.772,17.772,0,0,0-2.7,1.7,23.908,23.908,0,0,0-2.3,2.2A6.8,6.8,0,0,0,125.9,209.8Z" fill="#ffa121"></path><ellipse cx="4.1" cy="4.9" rx="4.1" ry="4.9" transform="translate(124.754 220.789) rotate(-21.814)" fill="#ffbc96"></ellipse><path d="M130.4,226.6a5.3,5.3,0,0,0-1.5-4.6l.2-.2a3.748,3.748,0,0,1,1.8,2.1,3.471,3.471,0,0,1-.3,2.8Z" fill="#1b1b43"></path><path d="M150,223.9a1.2,1.2,0,1,1-1.2-1.3A1.309,1.309,0,0,1,150,223.9Z" fill="#1b1b43"></path><path d="M156.3,225a1.193,1.193,0,0,1-1.2,1.1,1.13,1.13,0,0,1-.9-1.3,1.193,1.193,0,0,1,1.2-1.1A1.034,1.034,0,0,1,156.3,225Z" fill="#1b1b43"></path><path d="M149.9,220.5c0,.6-1,.7-2.4.7-1.5,0-2.5.5-2.5.1s1.1-1.4,2.5-1.7C149,219.5,149.9,219.8,149.9,220.5Z" fill="#1b1b43"></path><path d="M154.6,221.1c-.1.6.6.8,1.7,1s1.8.7,1.8.4a2.872,2.872,0,0,0-1.7-1.9C155.4,220.2,154.8,220.4,154.6,221.1Z" fill="#1b1b43"></path><path d="M152.9,226.1l.9.9.5.4a3.171,3.171,0,0,1,.5.6c.1.1.1.3.2.5a.749.749,0,0,1-.1.5,3.394,3.394,0,0,1-.6.6,3.494,3.494,0,0,1-1.3.5l-.1-.3a10.541,10.541,0,0,0,1.1-.7c.1-.1.3-.3.3-.4.1-.1,0-.2,0-.3a8.745,8.745,0,0,1-.8-1,3.745,3.745,0,0,1-.7-1.2Z" fill="#1b1b43"></path><path d="M146.8,230.5a9.549,9.549,0,0,0,2.4,2.1,5.05,5.05,0,0,0,3,.5l.1.3a3.233,3.233,0,0,1-1.7.3,3.371,3.371,0,0,1-1.7-.5,5.291,5.291,0,0,1-2.3-2.6Z" fill="#1b1b43"></path><circle cx="3" cy="3" r="3" transform="translate(139.5 223.8)" fill="#fe5b52" opacity="0.2"></circle><path d="M157.6,227a35.743,35.743,0,0,1-1.1,4.7,3.023,3.023,0,0,1,1.1-4.7Z" fill="#fe5b52" opacity="0.2"></path><path d="M123.9,261.9l-17.1,8.2,5.3,12.7,17.9-8.3Z" fill="#ffa121"></path><path d="M187.1,306a4.77,4.77,0,0,1-.8-.4l.2-.3a4.767,4.767,0,0,0,.8.4Z" fill="#c5c5ff"></path><path d="M194.2,307.8c-.6,1.1-4.8-.8-6.8-1.8,1.5.8,4.2,2.5,3,3.4-.9.7-3-.8-9.8-3.6,1,.5,7.1,3.4,5.6,4.5-1.7,1.2-8.8-1.4-8.8-1.4l-6.2,3.3H164l-25.8.2a19.725,19.725,0,0,1-4.8-.6,22.377,22.377,0,0,1-8.4-4.3,21.5,21.5,0,0,1-4-4.5,25.239,25.239,0,0,1-2.1-4l-6.8-16.1,17.9-8.3,9.3,19,30.8,6.7,8.6-2.1c1.8-.5,4.5.3,6.1,1.3C188.9,301.8,194.7,306.7,194.2,307.8Z" fill="#ffbc96"></path><path d="M133.9,309a8.574,8.574,0,0,1-.5,2.7,22.377,22.377,0,0,1-8.4-4.3,21.5,21.5,0,0,1-4-4.5,7.881,7.881,0,0,1,4.9-1.7A7.732,7.732,0,0,1,133.9,309Z" fill="#fe5b52" opacity="0.2"></path><path d="M170.2,300c2.1-.7,4.3-1.3,6.5-1.8,1.1-.2,2.2-.4,3.4-.5h1.7c.3.1.6.1.9.2s.5.2.8.3a30.949,30.949,0,0,1,5.7,3.7c1.8,1.4,3.4,2.9,5.1,4.5l.1.1v.1a1.232,1.232,0,0,1-.2,1c-.1.1-.2.3-.4.3-.1.1-.3.1-.4.2a2.851,2.851,0,0,1-1.6-.2,13.9,13.9,0,0,1-2.8-1.2c-.9-.5-1.7-1-2.6-1.5s-1.7-1.1-2.5-1.6l.4-.6c1.5.9,2.9,1.8,4.3,2.8a10.708,10.708,0,0,1,1.9,1.8c.1.2.3.4.4.6a.6.6,0,0,1,.1.4.764.764,0,0,1-.2.5c-.2.3-.5.3-.7.4a1.7,1.7,0,0,1-.7.1h-.2l-7.8-3.3.2-.5c1.2.6,2.4,1.2,3.6,1.9a5.017,5.017,0,0,1,1.5,1.4.821.821,0,0,1,.1.7,1.205,1.205,0,0,1-.5.5,2.153,2.153,0,0,1-1.1.2,17.562,17.562,0,0,1-4-.6,24.009,24.009,0,0,1-3.8-1.2l.1-.3c1.3.4,2.5.8,3.8,1.1a13.062,13.062,0,0,0,3.9.5c.6,0,1.3-.3,1-.7a4.072,4.072,0,0,0-1.4-1.2,23.134,23.134,0,0,0-3.5-1.8l.2-.5,7.8,3.2h-.1a1.268,1.268,0,0,0,.6-.1.52.52,0,0,0,.4-.2c.1,0,0-.4-.3-.7a13.72,13.72,0,0,0-1.8-1.6,37.425,37.425,0,0,0-4.2-2.7l.4-.6c.8.5,1.6,1.1,2.5,1.6.8.5,1.7,1,2.5,1.5a14.453,14.453,0,0,0,2.6,1.1,5.852,5.852,0,0,0,1.3.2h.1a.1.1,0,0,0,.1-.1c.1,0,.1-.1.2-.1a.749.749,0,0,0,.1-.5l.1.2c-1.6-1.6-3.3-3.1-5-4.5a25.262,25.262,0,0,0-5.5-3.7l-.8-.3c-.3-.1-.5-.1-.8-.2a8.6,8.6,0,0,0-1.6-.1,18.59,18.59,0,0,0-3.3.4c-2.2.4-4.4,1-6.5,1.6Z" fill="#d28572"></path><path d="M112.2,283l-.2-.5,17.7-8.1-7.4-17.3.5-.2,7.6,17.7Z" fill="#1b1b43"></path><rect width="0.9" height="80.7" transform="translate(113.8 358.5)" fill="#1b1b43"></rect><path d="M136.9,362H91.7a5.591,5.591,0,0,1-5.6-5.6h0a5.591,5.591,0,0,1,5.6-5.6h45.1a5.591,5.591,0,0,1,5.6,5.6h0A5.57,5.57,0,0,1,136.9,362Z" fill="#d1d1ff"></path><path d="M133.3,444.4h-38a9.282,9.282,0,0,1,9.3-9.3H124a9.413,9.413,0,0,1,9.3,9.3Z" fill="#d1d1ff"></path><rect width="0.9" height="150" transform="matrix(0.846, -0.534, 0.534, 0.846, 168.181, 317.308)" fill="#1b1b43"></rect><rect width="150" height="0.9" transform="translate(168.132 443.6) rotate(-57.737)" fill="#1b1b43"></rect><rect width="140.2" height="10.6" transform="translate(138.4 311.9)" fill="#d1d1ff"></rect><path d="M150.2,143.3A29.3,29.3,0,1,1,179.5,114,29.277,29.277,0,0,1,150.2,143.3Zm0-58A28.7,28.7,0,1,0,178.9,114,28.765,28.765,0,0,0,150.2,85.3Z" fill="#9192ff"></path><circle cx="31.9" cy="31.9" r="31.9" transform="translate(138.1 70.6)" fill="#ebebff"></circle><path d="M170,103.1,152.3,89.2l.6-.7L170,101.9l9.5-8.1.6.7Z" fill="#1b1b43"></path><path d="M87.3,171.2H71.1a4.7,4.7,0,0,0-4.7,4.7v16.2a4.7,4.7,0,0,0,4.7,4.7H82.7l5,6.9v-6.9a4.78,4.78,0,0,0,4.4-4.7V176A4.935,4.935,0,0,0,87.3,171.2Z" fill="#fff"></path><path d="M87.9,204.7l-5.5-7.5H71.1a5.015,5.015,0,0,1-5-5V176a5.015,5.015,0,0,1,5-5H87.3a5.015,5.015,0,0,1,5,5v16.2a5.065,5.065,0,0,1-4.4,5ZM71.1,171.6a4.439,4.439,0,0,0-4.4,4.4v16.2a4.439,4.439,0,0,0,4.4,4.4H82.8l4.5,6.2v-6.2h.3a4.455,4.455,0,0,0,4.1-4.4V176a4.439,4.439,0,0,0-4.4-4.4Z" fill="#9192ff"></path><path d="M78.8,192.4,72.4,183l1.5-1,4.8,6.9L85.8,176l1.7.9Z" fill="#9192ff"></path><rect width="384.1" height="0.9" transform="translate(60 443.5)" fill="#1b1b43"></rect></svg>