<svg xmlns="http://www.w3.org/2000/svg" xmlns:xlink="http://www.w3.org/1999/xlink" width="500" height="500" viewBox="0 0 500 500">
  <defs>
    <clipPath id="clip-path">
      <path id="Elipse_39" data-name="Elipse 39" d="M33.321.54A29.13,29.13,0,0,1,45.687,3.029a30.105,30.105,0,0,1,9.9,7.124A32.876,32.876,0,0,1,62.13,20.784a36.027,36.027,0,0,1,2.313,13.111A37.942,37.942,0,0,1,61.928,47.2a37.418,37.418,0,0,1-6.707,11.174,34.631,34.631,0,0,1-10,7.946,31.141,31.141,0,0,1-12.394,3.523,29.2,29.2,0,0,1-12.578-1.9A29.912,29.912,0,0,1,9.843,61.082,32.641,32.641,0,0,1,2.777,50.263,35.935,35.935,0,0,1,.231,36.6,37.938,37.938,0,0,1,2.958,22.7a37.278,37.278,0,0,1,7.218-11.436A34.3,34.3,0,0,1,20.693,3.509,30.824,30.824,0,0,1,33.321.54Z" fill="#6c63ff"/>
    </clipPath>
    <clipPath id="clip-path-2">
      <path id="Elipse_43" data-name="Elipse 43" d="M31.262,10.853a17.636,17.636,0,0,1,4.474,5.564,23.691,23.691,0,0,1,2.354,7.2,27.5,27.5,0,0,1,.112,7.955,26.548,26.548,0,0,1-2.276,7.839,21.465,21.465,0,0,1-4.363,6.252,15.769,15.769,0,0,1-5.593,3.6,12.513,12.513,0,0,1-6.142.654,12.975,12.975,0,0,1-5.985-2.594,17.337,17.337,0,0,1-4.648-5.537,23.513,23.513,0,0,1-2.48-7.34,27.482,27.482,0,0,1-.126-8.175,26.461,26.461,0,0,1,2.389-8.021,21.174,21.174,0,0,1,4.537-6.279,15.461,15.461,0,0,1,5.72-3.458,12.416,12.416,0,0,1,6.156-.434A13.15,13.15,0,0,1,31.262,10.853Z" fill="#6c63ff"/>
    </clipPath>
    <clipPath id="clip-path-3">
      <path id="Elipse_45" data-name="Elipse 45" d="M14.218,4.466a12.158,12.158,0,0,1,5.813-.408,13.777,13.777,0,0,1,5.4,2.221,16.971,16.971,0,0,1,4.4,4.42,20.091,20.091,0,0,1,2.84,6.21,21.227,21.227,0,0,1,.686,6.91,19.594,19.594,0,0,1-1.489,6.344,16.271,16.271,0,0,1-3.383,5.114,13.192,13.192,0,0,1-5.01,3.2,12.141,12.141,0,0,1-5.777.564,13.629,13.629,0,0,1-5.458-2.09,16.8,16.8,0,0,1-4.523-4.383,20.009,20.009,0,0,1-2.957-6.293,21.224,21.224,0,0,1-.723-7.066,19.55,19.55,0,0,1,1.552-6.475A16.147,16.147,0,0,1,9.091,7.583,13.085,13.085,0,0,1,14.218,4.466Z" fill="#6c63ff"/>
    </clipPath>
    <clipPath id="clip-Monitor_Tablet_Celular_Dinheiro">
      <rect width="500" height="500"/>
    </clipPath>
  </defs>
  <g id="Monitor_Tablet_Celular_Dinheiro" data-name="Monitor + Tablet + Celular + Dinheiro" clip-path="url(#clip-Monitor_Tablet_Celular_Dinheiro)">
    <g id="Grupo_1117" data-name="Grupo 1117" transform="translate(9.951 40.377)">
      <g id="Grupo_885" data-name="Grupo 885" transform="translate(50.874 8.092)">
        <path id="Caminho_1705" data-name="Caminho 1705" d="M108.964,155.972,83.11,62.066l.7-.251L78.923,44.058l-.7.243L69.956,14.288a10.6,10.6,0,0,0-1.461-3.18,8.931,8.931,0,0,0-2.229-2.28,7.033,7.033,0,0,0-2.706-1.169,5.927,5.927,0,0,0-2.887.158L6.764,24.556A6.927,6.927,0,0,0,4.026,26.18a8.244,8.244,0,0,0-1.847,2.688A9.9,9.9,0,0,0,1.39,32.25a10.946,10.946,0,0,0,.433,3.7L8.28,57.934l-1.243.455,4.1,13.015.989-.373.845,2.877-1.051.4,4.068,12.906.8-.312,28.586,97.317a9.492,9.492,0,0,0,.617,1.58,8.645,8.645,0,0,0,.858,1.382,7.767,7.767,0,0,0,1.07,1.147,7.007,7.007,0,0,0,1.253.875,6.452,6.452,0,0,0,1.377.557,6.194,6.194,0,0,0,2.878.1,6.576,6.576,0,0,0,1.417-.46l49.909-22.536a6.858,6.858,0,0,0,2.327-1.761,8.845,8.845,0,0,0,1.564-2.631,10.5,10.5,0,0,0,.319-6.494Z" transform="translate(165.741 -0.002)" fill="#3f3d56"/>
        <path id="Caminho_1706" data-name="Caminho 1706" d="M48.663,182.346a2.983,2.983,0,0,1-1.082-.184,3.259,3.259,0,0,1-.957-.556,3.8,3.8,0,0,1-.769-.877,4.442,4.442,0,0,1-.518-1.146L1.566,30.087a5.246,5.246,0,0,1-.206-1.769A4.746,4.746,0,0,1,1.736,26.7a3.954,3.954,0,0,1,.882-1.287,3.324,3.324,0,0,1,1.309-.781L15.764,20.92l-.022.477a6.026,6.026,0,0,0,.075,1.252,6.131,6.131,0,0,0,.325,1.2,5.9,5.9,0,0,0,.556,1.094,5.4,5.4,0,0,0,.765.935,4.775,4.775,0,0,0,.921.7A4.181,4.181,0,0,0,19.389,27a3.752,3.752,0,0,0,1.043.134,3.558,3.558,0,0,0,1.033-.169l25.3-8.09a3.59,3.59,0,0,0,.845-.522,4.031,4.031,0,0,0,.7-.744,4.632,4.632,0,0,0,.521-.931,5.287,5.287,0,0,0,.321-1.083,5.727,5.727,0,0,0,.094-1.145,6.074,6.074,0,0,0-.475-2.249,5.734,5.734,0,0,0-.55-1.01l-.257-.378L59.389,7.234a2.836,2.836,0,0,1,1.38-.077,3.366,3.366,0,0,1,1.3.557A4.278,4.278,0,0,1,63.135,8.8a5.088,5.088,0,0,1,.7,1.525l37.823,137.056a13.325,13.325,0,0,1,.451,4.26,13.175,13.175,0,0,1-.859,4.023,11.245,11.245,0,0,1-2,3.353,8.765,8.765,0,0,1-2.982,2.243l-46.4,20.805q-.145.065-.294.115a3.1,3.1,0,0,1-.3.085,3.062,3.062,0,0,1-.3.054A2.985,2.985,0,0,1,48.663,182.346Z" transform="translate(169.226 3.951)" fill="#fff"/>
        <path id="Caminho_1707" data-name="Caminho 1707" d="M50.141,5.707,1.7,24.333a1.071,1.071,0,0,1-.5.067,1.146,1.146,0,0,1-.47-.16,1.366,1.366,0,0,1-.389-.355,1.624,1.624,0,0,1-.256-.52,1.764,1.764,0,0,1-.068-.592,1.693,1.693,0,0,1,.125-.552,1.452,1.452,0,0,1,.292-.452,1.194,1.194,0,0,1,.434-.291L49.375,2.947a.951.951,0,0,1,.462-.056,1.048,1.048,0,0,1,.434.161,1.311,1.311,0,0,1,.359.348,1.613,1.613,0,0,1,.236.5,1.774,1.774,0,0,1,.062.57A1.67,1.67,0,0,1,50.813,5a1.382,1.382,0,0,1-.27.431A1.083,1.083,0,0,1,50.141,5.707Z" transform="translate(198.551 87.395)" fill="#aeaeae"/>
        <path id="Caminho_1708" data-name="Caminho 1708" d="M17.53,3.663,1.649,9.857a1.027,1.027,0,0,1-.484.066,1.1,1.1,0,0,1-.456-.157,1.333,1.333,0,0,1-.378-.35A1.609,1.609,0,0,1,.082,8.9,1.763,1.763,0,0,1,.017,8.32a1.689,1.689,0,0,1,.121-.545A1.436,1.436,0,0,1,.422,7.33a1.159,1.159,0,0,1,.422-.286L16.746.88a.988.988,0,0,1,.472-.062,1.07,1.07,0,0,1,.444.158,1.317,1.317,0,0,1,.367.348,1.6,1.6,0,0,1,.241.507,1.766,1.766,0,0,1,.063.576,1.682,1.682,0,0,1-.118.536,1.413,1.413,0,0,1-.276.438A1.123,1.123,0,0,1,17.53,3.663Z" transform="translate(217.089 101.818)" fill="#aeaeae"/>
        <path id="Caminho_1709" data-name="Caminho 1709" d="M17.423,3.47,1.639,9.8a1.022,1.022,0,0,1-.481.071A1.082,1.082,0,0,1,.7,9.722a1.305,1.305,0,0,1-.375-.345,1.585,1.585,0,0,1-.247-.508,1.756,1.756,0,0,1-.065-.581,1.7,1.7,0,0,1,.121-.544A1.45,1.45,0,0,1,.419,7.3a1.169,1.169,0,0,1,.419-.29L16.644.705a.983.983,0,0,1,.47-.066,1.051,1.051,0,0,1,.442.153,1.289,1.289,0,0,1,.365.343,1.585,1.585,0,0,1,.24.5,1.758,1.758,0,0,1,.063.573,1.692,1.692,0,0,1-.118.536,1.428,1.428,0,0,1-.274.439,1.134,1.134,0,0,1-.408.284Z" transform="translate(220.774 114.701)" fill="#aeaeae"/>
        <path id="Caminho_1710" data-name="Caminho 1710" d="M17.37,3.376,1.634,9.78a1.02,1.02,0,0,1-.48.073A1.073,1.073,0,0,1,.7,9.7a1.293,1.293,0,0,1-.374-.342,1.575,1.575,0,0,1-.246-.506,1.75,1.75,0,0,1-.065-.579,1.7,1.7,0,0,1,.12-.543,1.458,1.458,0,0,1,.281-.447,1.172,1.172,0,0,1,.418-.291L16.592.62a.981.981,0,0,1,.468-.069A1.042,1.042,0,0,1,17.5.7a1.276,1.276,0,0,1,.364.34,1.57,1.57,0,0,1,.239.5,1.754,1.754,0,0,1,.063.572,1.7,1.7,0,0,1-.117.535,1.437,1.437,0,0,1-.274.44,1.138,1.138,0,0,1-.406.286Z" transform="translate(222.652 121.264)" fill="#aeaeae"/>
        <path id="Caminho_1711" data-name="Caminho 1711" d="M35.266,4.411,1.668,17.7a1.047,1.047,0,0,1-.49.07,1.111,1.111,0,0,1-.461-.155,1.33,1.33,0,0,1-.382-.349,1.6,1.6,0,0,1-.252-.513,1.757,1.757,0,0,1-.066-.586,1.7,1.7,0,0,1,.123-.548,1.456,1.456,0,0,1,.287-.45,1.184,1.184,0,0,1,.426-.291L34.5,1.654a.964.964,0,0,1,.465-.062,1.045,1.045,0,0,1,.437.156,1.294,1.294,0,0,1,.361.344,1.6,1.6,0,0,1,.237.5,1.762,1.762,0,0,1,.062.571,1.684,1.684,0,0,1-.116.532,1.406,1.406,0,0,1-.272.435,1.108,1.108,0,0,1-.4.28Z" transform="translate(209.829 103.893)" fill="#aeaeae"/>
        <path id="Caminho_1712" data-name="Caminho 1712" d="M8.426,4.973,2.743,7.352a1.71,1.71,0,0,1-.805.131,1.78,1.78,0,0,1-.759-.245,2.147,2.147,0,0,1-.628-.573,2.636,2.636,0,0,1-.414-.851,2.968,2.968,0,0,1-.109-.978,2.9,2.9,0,0,1,.2-.92A2.5,2.5,0,0,1,.7,3.156a1.992,1.992,0,0,1,.7-.5L7.1.3A1.685,1.685,0,0,1,7.9.172,1.764,1.764,0,0,1,8.65.421a2.139,2.139,0,0,1,.62.572,2.636,2.636,0,0,1,.407.846,2.97,2.97,0,0,1,.107.971,2.9,2.9,0,0,1-.2.913,2.482,2.482,0,0,1-.466.754,1.973,1.973,0,0,1-.693.5Z" transform="translate(229.752 135.172)" fill="#6c63ff"/>
        <path id="Elipse_36" data-name="Elipse 36" d="M.837.091A.764.764,0,0,1,1.155.2a.965.965,0,0,1,.258.239,1.15,1.15,0,0,1,.172.331,1.2,1.2,0,0,1,.061.388,1.086,1.086,0,0,1-.068.374.884.884,0,0,1-.178.291.717.717,0,0,1-.262.181.665.665,0,0,1-.319.041A.763.763,0,0,1,.5,1.938.965.965,0,0,1,.242,1.7,1.149,1.149,0,0,1,.07,1.367,1.2,1.2,0,0,1,.009.979,1.086,1.086,0,0,1,.077.6.884.884,0,0,1,.255.313.717.717,0,0,1,.518.132.665.665,0,0,1,.837.091Z" transform="translate(211.701 18.004)" fill="#fff"/>
        <path id="Caminho_1733" data-name="Caminho 1733" d="M163.71,75.118l-11.776,27.047.435.287-4.052,10.421-.813-.529-2.672,6.134.64.452-4.381,10.343-.734-.511-40.91,93.971a12.663,12.663,0,0,1-2.165,3.412,9.528,9.528,0,0,1-2.8,2.177,6.854,6.854,0,0,1-3.089.758,5.885,5.885,0,0,1-3.023-.849L5.228,178.349A8.461,8.461,0,0,1,2.5,175.675a10.923,10.923,0,0,1-1.5-3.73,13.286,13.286,0,0,1-.165-4.295,14.063,14.063,0,0,1,1.273-4.362L77.046,6.965A10.045,10.045,0,0,1,79.3,3.871a7.561,7.561,0,0,1,2.892-1.679,6.465,6.465,0,0,1,3.158-.16,7.157,7.157,0,0,1,3.058,1.457l72.977,58.185a8.12,8.12,0,0,1,2.073,2.568,11.392,11.392,0,0,1,1.125,3.379,13.5,13.5,0,0,1,.109,3.765A12.986,12.986,0,0,1,163.71,75.118Z" transform="translate(221.088 132.539)" fill="#3f3d56"/>
        <path id="Caminho_1734" data-name="Caminho 1734" d="M85.085,214.82,2.041,164.427a2.615,2.615,0,0,1-.835-.826,3.372,3.372,0,0,1-.458-1.146,4.1,4.1,0,0,1-.05-1.318,4.339,4.339,0,0,1,.389-1.339L75.908,2.9a3.1,3.1,0,0,1,.69-.953,2.335,2.335,0,0,1,.888-.521,1.993,1.993,0,0,1,.973-.055,2.2,2.2,0,0,1,.945.444l73.561,58.139a2.494,2.494,0,0,1,.643.791,3.507,3.507,0,0,1,.35,1.044,4.158,4.158,0,0,1,.034,1.165,4,4,0,0,1-.3,1.154L88.506,213.136a3.9,3.9,0,0,1-.672,1.054,2.927,2.927,0,0,1-.867.668,2.108,2.108,0,0,1-.953.229A1.814,1.814,0,0,1,85.085,214.82Z" transform="translate(227.215 139.855)" fill="#fff"/>
        <path id="Elipse_37" data-name="Elipse 37" d="M.674,0A.508.508,0,0,1,.928.071a.663.663,0,0,1,.205.185A.911.911,0,0,1,1.27.532a1.114,1.114,0,0,1,.047.338,1.132,1.132,0,0,1-.055.339.951.951,0,0,1-.143.278.7.7,0,0,1-.21.188.522.522,0,0,1-.255.07A.508.508,0,0,1,.4,1.679a.663.663,0,0,1-.206-.185.91.91,0,0,1-.137-.276A1.114,1.114,0,0,1,.01.878,1.132,1.132,0,0,1,.066.539.95.95,0,0,1,.209.261.7.7,0,0,1,.419.074.521.521,0,0,1,.674,0Z" transform="translate(344.597 167.688)" fill="#fff"/>
        <path id="Caminho_1735" data-name="Caminho 1735" d="M66.752,53.389,1.5,7.953A1.964,1.964,0,0,1,.941,7.34a2.562,2.562,0,0,1-.307-.821A3.009,3.009,0,0,1,.864,4.678a2.514,2.514,0,0,1,.521-.738,1.94,1.94,0,0,1,.672-.429A1.544,1.544,0,0,1,3.51,3.7L68.553,49.306a1.716,1.716,0,0,1,.5.558,2.409,2.409,0,0,1,.271.762,2.969,2.969,0,0,1,.027.867,3.019,3.019,0,0,1-.235.874,2.517,2.517,0,0,1-.464.714,1.831,1.831,0,0,1-.6.431,1.361,1.361,0,0,1-.658.114,1.305,1.305,0,0,1-.641-.236Z" transform="translate(273.636 219.141)" fill="#aeaeae"/>
        <path id="Caminho_1736" data-name="Caminho 1736" d="M22.705,21.007,1.1,6.2A1.859,1.859,0,0,1,.56,5.609a2.489,2.489,0,0,1-.3-.8A3.021,3.021,0,0,1,.488,2.992a2.546,2.546,0,0,1,.505-.736,1.93,1.93,0,0,1,.651-.436,1.518,1.518,0,0,1,.714-.1,1.479,1.479,0,0,1,.694.261L24.585,16.84a1.779,1.779,0,0,1,.52.574,2.441,2.441,0,0,1,.284.78,2.969,2.969,0,0,1,.029.886,3.023,3.023,0,0,1-.245.892,2.551,2.551,0,0,1-.485.728,1.9,1.9,0,0,1-.626.438,1.449,1.449,0,0,1-.687.113A1.39,1.39,0,0,1,22.705,21.007Z" transform="translate(292.378 246.238)" fill="#aeaeae"/>
        <path id="Caminho_1737" data-name="Caminho 1737" d="M23.036,21.194,1.114,6.651a1.833,1.833,0,0,1-.551-.586,2.453,2.453,0,0,1-.3-.8A2.972,2.972,0,0,1,.23,4.353a3.047,3.047,0,0,1,.259-.919A2.624,2.624,0,0,1,1,2.684a2.005,2.005,0,0,1,.66-.45,1.561,1.561,0,0,1,.724-.116,1.484,1.484,0,0,1,.7.251l21.851,14.6a1.754,1.754,0,0,1,.528.568,2.4,2.4,0,0,1,.288.78,2.964,2.964,0,0,1,.03.892,3.062,3.062,0,0,1-.248.9,2.624,2.624,0,0,1-.492.741,1.971,1.971,0,0,1-.635.451,1.492,1.492,0,0,1-.7.126A1.4,1.4,0,0,1,23.036,21.194Z" transform="translate(283.369 265.289)" fill="#aeaeae"/>
        <path id="Caminho_1738" data-name="Caminho 1738" d="M23.209,21.289,1.121,6.886A1.821,1.821,0,0,1,.566,6.3a2.437,2.437,0,0,1-.3-.8A2.963,2.963,0,0,1,.23,4.587a3.063,3.063,0,0,1,.26-.924,2.661,2.661,0,0,1,.516-.756,2.044,2.044,0,0,1,.665-.457,1.586,1.586,0,0,1,.73-.123,1.488,1.488,0,0,1,.71.246L25.129,17.035a1.741,1.741,0,0,1,.532.566,2.387,2.387,0,0,1,.291.78,2.96,2.96,0,0,1,.03.894,3.08,3.08,0,0,1-.25.907,2.66,2.66,0,0,1-.5.747,2.009,2.009,0,0,1-.639.458,1.514,1.514,0,0,1-.7.132A1.4,1.4,0,0,1,23.209,21.289Z" transform="translate(278.704 275.15)" fill="#aeaeae"/>
        <path id="Caminho_1739" data-name="Caminho 1739" d="M47.511,39.21,1.331,8.059a1.9,1.9,0,0,1-.559-.6,2.5,2.5,0,0,1-.306-.812,2.981,2.981,0,0,1-.032-.92A3.019,3.019,0,0,1,.7,4.807a2.587,2.587,0,0,1,.519-.747,1.994,1.994,0,0,1,.67-.443A1.58,1.58,0,0,1,2.62,3.51a1.533,1.533,0,0,1,.714.264L49.366,35.047a1.724,1.724,0,0,1,.513.561,2.4,2.4,0,0,1,.28.77,2.961,2.961,0,0,1,.028.879,3.05,3.05,0,0,1-.242.889,2.588,2.588,0,0,1-.479.73,1.915,1.915,0,0,1-.617.444,1.431,1.431,0,0,1-.678.123A1.346,1.346,0,0,1,47.511,39.21Z" transform="translate(275.159 245.479)" fill="#aeaeae"/>
        <path id="Caminho_1741" data-name="Caminho 1741" d="M0,211.533l281.209-32.521,1.806-166.5a5.843,5.843,0,0,0-.274-1.844,5.049,5.049,0,0,0-.784-1.521A3.933,3.933,0,0,0,280.778,8.1a3.125,3.125,0,0,0-1.455-.413L6.871.156a5.46,5.46,0,0,0-2.207.4,5.528,5.528,0,0,0-1.812,1.2A5.7,5.7,0,0,0,1.621,3.577a5.879,5.879,0,0,0-.462,2.259Z" transform="translate(0.777 121.051)" fill="#3f3d56"/>
        <path id="Retângulo_520" data-name="Retângulo 520" d="M1.1,0,265.172,5.849,263.52,159.972,0,187.92Z" transform="translate(11.514 129.359)" fill="#fff"/>
        <path id="Caminho_1742" data-name="Caminho 1742" d="M.5,31.547.356,56.832a7.475,7.475,0,0,0,.6,3.025,6.6,6.6,0,0,0,1.661,2.312,6.484,6.484,0,0,0,2.469,1.375,7.172,7.172,0,0,0,3.02.218L124.88,48.067,124.517,93.7l-1.429.24a.9.9,0,0,0-.333.131,1.106,1.106,0,0,0-.273.249,1.207,1.207,0,0,0-.186.333,1.136,1.136,0,0,0-.07.381L122.2,98.21a.943.943,0,0,0,.064.358.756.756,0,0,0,.181.27.672.672,0,0,0,.27.157.726.726,0,0,0,.332.017l63.687-10.943a.794.794,0,0,0,.3-.123,1.019,1.019,0,0,0,.248-.236,1.162,1.162,0,0,0,.169-.316,1.129,1.129,0,0,0,.064-.362l.028-3.024a.943.943,0,0,0-.058-.341.733.733,0,0,0-.164-.259.611.611,0,0,0-.245-.152.629.629,0,0,0-.3-.02l-1.3.219.4-43.583,91.1-12.244a4.823,4.823,0,0,0,2.016-.779,6.52,6.52,0,0,0,1.652-1.605,8.05,8.05,0,0,0,1.123-2.2,8.448,8.448,0,0,0,.431-2.567L282.423,0Z" transform="translate(0.008 295.523)" fill="#3f3d56"/>
        <path id="Caminho_1743" data-name="Caminho 1743" d="M121.476,6.322,3.091,8.789a2.756,2.756,0,0,1-1.2-.246,2.979,2.979,0,0,1-.977-.719A3.375,3.375,0,0,1,.26,6.742,3.728,3.728,0,0,1,.027,5.4,3.832,3.832,0,0,1,.281,4.057,3.617,3.617,0,0,1,.953,2.949a3.209,3.209,0,0,1,.989-.755,2.848,2.848,0,0,1,1.2-.29L121.539.04a2.124,2.124,0,0,1,1,.231,2.509,2.509,0,0,1,.808.659,3.146,3.146,0,0,1,.538.987,3.693,3.693,0,0,1,.189,1.217,3.8,3.8,0,0,1-.213,1.224,3.379,3.379,0,0,1-.559,1.007,2.725,2.725,0,0,1-.821.689A2.208,2.208,0,0,1,121.476,6.322Z" transform="translate(122.511 181.197)" fill="#aeaeae"/>
        <path id="Caminho_1744" data-name="Caminho 1744" d="M41.761,6.543,2.9,7.8a2.5,2.5,0,0,1-1.125-.226,2.757,2.757,0,0,1-.916-.686A3.239,3.239,0,0,1,.246,5.846,3.69,3.69,0,0,1,.029,4.553a3.837,3.837,0,0,1,.24-1.307A3.577,3.577,0,0,1,.9,2.167a3.077,3.077,0,0,1,.928-.741,2.629,2.629,0,0,1,1.13-.293L41.822.074A2.3,2.3,0,0,1,42.88.3a2.608,2.608,0,0,1,.858.668,3.169,3.169,0,0,1,.572,1.01,3.68,3.68,0,0,1,.2,1.25,3.825,3.825,0,0,1-.225,1.263,3.5,3.5,0,0,1-.592,1.044,2.92,2.92,0,0,1-.871.72,2.42,2.42,0,0,1-1.062.288Z" transform="translate(164.747 196.357)" fill="#aeaeae"/>
        <path id="Caminho_1745" data-name="Caminho 1745" d="M41.747,6.6,2.9,8.761a2.47,2.47,0,0,1-1.125-.2A2.666,2.666,0,0,1,.859,7.9,3.137,3.137,0,0,1,.246,6.872,3.639,3.639,0,0,1,.029,5.586a3.875,3.875,0,0,1,.24-1.311A3.681,3.681,0,0,1,.9,3.183a3.182,3.182,0,0,1,.928-.762A2.676,2.676,0,0,1,2.957,2.1L41.808.14a2.266,2.266,0,0,1,1.057.2,2.521,2.521,0,0,1,.857.648,3.071,3.071,0,0,1,.572,1,3.631,3.631,0,0,1,.2,1.244,3.864,3.864,0,0,1-.225,1.266,3.6,3.6,0,0,1-.592,1.057,3.018,3.018,0,0,1-.87.739,2.466,2.466,0,0,1-1.062.313Z" transform="translate(164.482 225.893)" fill="#aeaeae"/>
        <path id="Caminho_1746" data-name="Caminho 1746" d="M41.739,6.626,2.9,9.248a2.457,2.457,0,0,1-1.125-.186,2.621,2.621,0,0,1-.915-.652A3.085,3.085,0,0,1,.246,7.392,3.614,3.614,0,0,1,.029,6.109,3.9,3.9,0,0,1,.268,4.8,3.735,3.735,0,0,1,.9,3.7a3.236,3.236,0,0,1,.928-.772,2.7,2.7,0,0,1,1.129-.332L41.8.168a2.253,2.253,0,0,1,1.057.187,2.476,2.476,0,0,1,.857.637,3.021,3.021,0,0,1,.572.988,3.608,3.608,0,0,1,.2,1.241,3.883,3.883,0,0,1-.225,1.268,3.652,3.652,0,0,1-.591,1.063,3.071,3.071,0,0,1-.87.749,2.491,2.491,0,0,1-1.062.325Z" transform="translate(164.347 241.016)" fill="#aeaeae"/>
        <path id="Caminho_1747" data-name="Caminho 1747" d="M85.5,6.462,3,10.077a2.613,2.613,0,0,1-1.165-.215,2.8,2.8,0,0,1-.948-.686A3.23,3.23,0,0,1,.254,8.124,3.67,3.67,0,0,1,.028,6.812,3.864,3.864,0,0,1,.275,5.48,3.678,3.678,0,0,1,.929,4.375a3.228,3.228,0,0,1,.961-.765A2.781,2.781,0,0,1,3.058,3.3L85.565.1a2.176,2.176,0,0,1,1.023.21,2.486,2.486,0,0,1,.829.648,3.083,3.083,0,0,1,.553.987,3.651,3.651,0,0,1,.194,1.227,3.836,3.836,0,0,1-.219,1.244,3.507,3.507,0,0,1-.573,1.033,2.882,2.882,0,0,1-.843.717,2.333,2.333,0,0,1-1.028.295Z" transform="translate(141.666 210.121)" fill="#aeaeae"/>
        <path id="Caminho_1749" data-name="Caminho 1749" d="M351.934,1.4.848,62.049a.78.78,0,0,1-.329-.011.667.667,0,0,1-.449-.381A.787.787,0,0,1,0,61.333a.965.965,0,0,1,.069-.347,1.1,1.1,0,0,1,.454-.536.959.959,0,0,1,.33-.124L351.95.086A.351.351,0,0,1,352.14.1a.393.393,0,0,1,.155.114.562.562,0,0,1,.1.191.788.788,0,0,1,.036.249.926.926,0,0,1-.042.263.873.873,0,0,1-.108.227.673.673,0,0,1-.158.168A.457.457,0,0,1,351.934,1.4Z" transform="translate(0 354.828)" fill="#d4a05b"/>
        <path id="Elipse_40" data-name="Elipse 40" d="M1.867.048a1.645,1.645,0,0,1,.71.183A1.885,1.885,0,0,1,3.153.7a2.182,2.182,0,0,1,.385.675,2.369,2.369,0,0,1,.136.817,2.329,2.329,0,0,1-.15.81,2.091,2.091,0,0,1-.4.655,1.8,1.8,0,0,1-.584.434,1.61,1.61,0,0,1-.713.148,1.644,1.644,0,0,1-.711-.181A1.883,1.883,0,0,1,.542,3.59a2.181,2.181,0,0,1-.387-.675A2.368,2.368,0,0,1,.018,2.1a2.329,2.329,0,0,1,.151-.812,2.089,2.089,0,0,1,.4-.656A1.8,1.8,0,0,1,1.153.194,1.61,1.61,0,0,1,1.867.048Z" transform="translate(155.912 126.693)" fill="#fff"/>
        <g id="Grupo_de_máscara_7" data-name="Grupo de máscara 7" transform="translate(48.105 185.359)" clip-path="url(#clip-path)">
          <path id="Retângulo_521" data-name="Retângulo 521" d="M.5,1.053,70.5,0l-.57,73.663L0,78.5Z" transform="translate(-3.033 -3.078)" fill="#42b9e9"/>
          <path id="Polígono_9" data-name="Polígono 9" d="M29.052,1.012,56.239,46.593,0,50.6Z" transform="translate(25.761 25.932)" fill="#11a194"/>
          <path id="Polígono_10" data-name="Polígono 10" d="M21.076,1.02,41.111,28.7,0,31.635Z" transform="translate(25.761 44.9)" fill="#373435"/>
          <path id="Polígono_11" data-name="Polígono 11" d="M40.684.925,78.325,65.084,0,70.669Z" transform="translate(-33.075 10.061)" fill="#a3cc6c"/>
          <path id="Elipse_41" data-name="Elipse 41" d="M8.563.2a7.651,7.651,0,0,1,3.251.632A7.967,7.967,0,0,1,14.447,2.7a8.7,8.7,0,0,1,1.759,2.818,9.476,9.476,0,0,1,.626,3.488,9.868,9.868,0,0,1-.677,3.528,9.627,9.627,0,0,1-1.8,2.927,8.868,8.868,0,0,1-2.661,2.031,8.027,8.027,0,0,1-3.26.832,7.652,7.652,0,0,1-3.266-.592A7.952,7.952,0,0,1,2.5,15.883,8.689,8.689,0,0,1,.705,13.051,9.47,9.47,0,0,1,.064,9.525,9.867,9.867,0,0,1,.755,5.958,9.616,9.616,0,0,1,2.59,3.014,8.846,8.846,0,0,1,5.286,1,8.009,8.009,0,0,1,8.563.2Z" transform="translate(25.388 10.145)" fill="#fcba72"/>
        </g>
        <path id="Retângulo_522" data-name="Retângulo 522" d="M1.74,2.281,28.093.128a1.254,1.254,0,0,1,.609.1A1.4,1.4,0,0,1,29.2.6a1.768,1.768,0,0,1,.33.582,2.185,2.185,0,0,1,.116.736l-.064,6.256a2.4,2.4,0,0,1-.131.757,2.249,2.249,0,0,1-.342.639,1.845,1.845,0,0,1-.5.455,1.432,1.432,0,0,1-.612.206L1.641,12.6A1.33,1.33,0,0,1,1,12.5a1.442,1.442,0,0,1-.517-.373,1.78,1.78,0,0,1-.346-.592,2.18,2.18,0,0,1-.122-.752L.081,4.377A2.4,2.4,0,0,1,.217,3.6,2.271,2.271,0,0,1,.575,2.95,1.9,1.9,0,0,1,1.1,2.487,1.509,1.509,0,0,1,1.74,2.281Z" transform="translate(216.133 262.41)" fill="#599e59"/>
        <path id="Retângulo_523" data-name="Retângulo 523" d="M5.066.787l19.6,12.66a1.277,1.277,0,0,1,.4.424,1.8,1.8,0,0,1,.217.593,2.286,2.286,0,0,1,.02.684,2.426,2.426,0,0,1-.192.7L22.863,20.9a2.125,2.125,0,0,1-.378.582,1.586,1.586,0,0,1-.486.363,1.156,1.156,0,0,1-.533.114,1.027,1.027,0,0,1-.518-.163L1.226,9.24A1.324,1.324,0,0,1,.809,8.8,1.822,1.822,0,0,1,.582,8.2a2.29,2.29,0,0,1-.021-.7,2.425,2.425,0,0,1,.2-.712L3.092,1.664a2.108,2.108,0,0,1,.391-.586,1.6,1.6,0,0,1,.5-.36A1.193,1.193,0,0,1,4.533.612,1.083,1.083,0,0,1,5.066.787Z" transform="translate(293.977 310.756)" fill="#599e59"/>
        <g id="Grupo_de_máscara_8" data-name="Grupo de máscara 8" transform="translate(306.745 182.207)" clip-path="url(#clip-path-2)">
          <path id="Retângulo_524" data-name="Retângulo 524" d="M19.463,0l28.89,23.4L29.841,62.785,0,40.078Z" transform="translate(-2.066 -2.604)" fill="#42b9e9"/>
          <path id="Polígono_12" data-name="Polígono 12" d="M24.366,9.543l.025,34.616L0,25.648Z" transform="translate(9.265 22.713)" fill="#11a194"/>
          <path id="Polígono_13" data-name="Polígono 13" d="M16.346,6.866l1.393,22.284L0,15.689Z" transform="translate(9.264 32.674)" fill="#373435"/>
          <path id="Polígono_14" data-name="Polígono 14" d="M33.554,12.995,32.9,60.2,0,35.229Z" transform="translate(-15.284 -5.5)" fill="#a3cc6c"/>
          <path id="Elipse_42" data-name="Elipse 42" d="M8.045,2.8A4.609,4.609,0,0,1,9.222,4.257a6.212,6.212,0,0,1,.623,1.895,7.2,7.2,0,0,1,.03,2.094,6.893,6.893,0,0,1-.6,2.056,5.512,5.512,0,0,1-1.149,1.624,4.024,4.024,0,0,1-1.464.914,3.22,3.22,0,0,1-1.6.138,3.4,3.4,0,0,1-1.543-.7,4.589,4.589,0,0,1-1.189-1.454,6.2,6.2,0,0,1-.631-1.9A7.2,7.2,0,0,1,1.67,6.806a6.887,6.887,0,0,1,.609-2.068A5.492,5.492,0,0,1,3.44,3.112a4,4,0,0,1,1.473-.9,3.214,3.214,0,0,1,1.6-.123A3.416,3.416,0,0,1,8.045,2.8Z" transform="translate(21.071 13.387)" fill="#fcba72"/>
        </g>
        <g id="Grupo_de_máscara_9" data-name="Grupo de máscara 9" transform="translate(195.924 44.994)" clip-path="url(#clip-path-3)">
          <path id="Retângulo_525" data-name="Retângulo 525" d="M0,9.806,30.665,0,40.5,36.665,10.341,47.26Z" transform="translate(-1.714 -1.912)" fill="#42b9e9"/>
          <path id="Polígono_15" data-name="Polígono 15" d="M12.575,4.1,31.1,23.262,6.459,31.952Z" transform="translate(14.813 10.607)" fill="#11a194"/>
          <path id="Polígono_16" data-name="Polígono 16" d="M9.077,3.045,21.836,14.212,3.927,20.527Z" transform="translate(17.345 22.031)" fill="#373435"/>
          <path id="Polígono_17" data-name="Polígono 17" d="M17.017,5.391,42.273,32.054,9.167,43.729Z" transform="translate(-12.581 7.537)" fill="#a3cc6c"/>
          <path id="Elipse_44" data-name="Elipse 44" d="M3.678,1.189A3.186,3.186,0,0,1,5.2,1.076a3.624,3.624,0,0,1,1.421.578A4.472,4.472,0,0,1,7.786,2.816a5.289,5.289,0,0,1,.756,1.639,5.564,5.564,0,0,1,.184,1.826,5.1,5.1,0,0,1-.4,1.672,4.213,4.213,0,0,1-.9,1.338,3.421,3.421,0,0,1-1.325.822,3.184,3.184,0,0,1-1.519.123,3.613,3.613,0,0,1-1.425-.569A4.461,4.461,0,0,1,1.987,8.508a5.284,5.284,0,0,1-.764-1.645,5.564,5.564,0,0,1-.186-1.837,5.1,5.1,0,0,1,.4-1.681,4.205,4.205,0,0,1,.907-1.34A3.414,3.414,0,0,1,3.678,1.189Z" transform="translate(12.166 8.031)" fill="#fcba72"/>
        </g>
        <path id="Elipse_46" data-name="Elipse 46" d="M4.2.448A3.449,3.449,0,0,1,5.794.641,3.49,3.49,0,0,1,7.087,1.5,4.07,4.07,0,0,1,7.95,2.888a4.92,4.92,0,0,1,.305,1.781A5.6,5.6,0,0,1,7.03,8.1a4.927,4.927,0,0,1-1.31,1.151,4.034,4.034,0,0,1-1.6.552,3.422,3.422,0,0,1-2.9-1.036,4.063,4.063,0,0,1-.872-1.39A4.917,4.917,0,0,1,.04,5.591,5.6,5.6,0,0,1,1.277,2.138,4.916,4.916,0,0,1,2.6.99,4.022,4.022,0,0,1,4.2.448Z" transform="translate(152.056 305.125)" fill="#fff"/>
        <path id="Retângulo_526" data-name="Retângulo 526" d="M.359,8.305,61.971,0l-.392,43.193L0,53.551Z" transform="translate(124.437 335.83)" opacity="0.1"/>
      </g>
      <g id="Grupo_1112" data-name="Grupo 1112" transform="translate(455.278 289.303)">
        <path id="Caminho_883" data-name="Caminho 883" d="M5.08,1.327A8.937,8.937,0,0,0,.886,6.716a16.666,16.666,0,0,0-.57,7.4,10.376,10.376,0,0,0,2.468,5.771,3.8,3.8,0,0,0,4.876.557,9.053,9.053,0,0,0,4.011-5.369,17.206,17.206,0,0,0,.608-7.314A10.43,10.43,0,0,0,9.945,2,3.807,3.807,0,0,0,5.08,1.327Z" transform="translate(7.678 22.154)" fill="#79d5a4"/>
        <path id="Caminho_877" data-name="Caminho 877" d="M12.78,24.293a3.387,3.387,0,0,1,4.328.594,9.274,9.274,0,0,1,2.08,5.129,15.3,15.3,0,0,1-.541,6.509A8.047,8.047,0,0,1,15.076,41.3a3.38,3.38,0,0,1-4.337-.5,9.237,9.237,0,0,1-2.193-5.133,14.823,14.823,0,0,1,.507-6.579A7.952,7.952,0,0,1,12.78,24.293ZM1.735,6.966c.065,1.4.162,2.865.284,4.34s.271,2.965.439,4.43.356,2.9.557,4.28.417,2.685.641,3.891c.116.627.244,1.262.379,1.9s.279,1.267.428,1.893.3,1.242.46,1.842.316,1.185.475,1.745c.4,1.4.724,2.6.967,3.712a20.738,20.738,0,0,1,.465,3.259,22.739,22.739,0,0,1-.1,3.632c-.137,1.364-.379,2.928-.739,4.829C5.625,48.633,5.225,50.37,4.79,52s-.9,3.162-1.406,4.662-1.037,2.975-1.6,4.5S.623,64.257,0,65.954a24.6,24.6,0,0,0,2.633-.972C3.983,64.437,5.69,63.724,7.408,63s3.437-1.457,4.835-2.051,2.465-1.045,2.878-1.206a10.894,10.894,0,0,0,1.093-.473,1.961,1.961,0,0,0,.605-.463,3.007,3.007,0,0,0,.416-.7c.14-.3.3-.688.524-1.2.154-.347.3-.687.45-1.022s.288-.668.426-1,.272-.668.4-1.009.255-.688.375-1.046q.359-1.063.685-2.221t.612-2.387c.19-.82.365-1.663.523-2.523s.3-1.738.421-2.629a57.234,57.234,0,0,0,.521-5.92,44.975,44.975,0,0,0-.118-5.055c-.127-1.614-.334-3.193-.591-4.845s-.567-3.38-.9-5.288c-.14-.8-.275-1.6-.407-2.4s-.262-1.6-.393-2.4-.261-1.616-.4-2.44-.272-1.661-.416-2.517c-.163-.967-.315-1.906-.45-2.84s-.254-1.862-.351-2.8-.172-1.9-.218-2.9S17.87,1.634,17.884.544a18.767,18.767,0,0,0-2.94,1.035c-1.455.588-3.269,1.359-5.088,2.135S6.2,5.274,4.727,5.877A21.81,21.81,0,0,1,1.735,6.966Z" transform="translate(0)" fill="#219862"/>
      </g>
      <g id="Grupo_1113" data-name="Grupo 1113" transform="translate(81.204 33.496)">
        <path id="Caminho_891" data-name="Caminho 891" d="M21.864,15.479a11.612,11.612,0,0,0-.984-9.394A11.071,11.071,0,0,0,14.3,1.264a11.2,11.2,0,0,0-8.162.819,11.391,11.391,0,0,0-5.593,7.6A11.925,11.925,0,0,0,1.688,19.17a10.923,10.923,0,0,0,6.6,4.731,11.042,11.042,0,0,0,8.024-.946A11.73,11.73,0,0,0,21.864,15.479Z" transform="translate(34.795 32.354)" fill="#79d5a4"/>
        <path id="Caminho_878" data-name="Caminho 878" d="M55.5,47.434a11.034,11.034,0,0,1-5.232,7.034,10.4,10.4,0,0,1-7.554.886A10.284,10.284,0,0,1,36.508,50.9a11.218,11.218,0,0,1-1.075-8.926,10.715,10.715,0,0,1,5.262-7.148,10.543,10.543,0,0,1,7.683-.772,10.425,10.425,0,0,1,6.2,4.537A10.924,10.924,0,0,1,55.5,47.434ZM50.522,8.487a18.511,18.511,0,0,1-.53,2.664c-.281,1.1-.644,2.357-1.029,3.607s-.792,2.494-1.158,3.565-.692,1.971-.915,2.531A39.244,39.244,0,0,1,39.7,33.01a45.557,45.557,0,0,1-8.058,6.757A56.4,56.4,0,0,0,23.026,46.8,49.739,49.739,0,0,0,14.185,59.92c-.51,1.045-1.609,3.155-2.98,5.77S8.18,71.439,6.572,74.512s-3.179,6.1-4.382,8.5A44.4,44.4,0,0,0,0,87.733c2.113-.442,4.919-.929,8.077-1.433s6.632-1.02,10.131-1.527c3.482-.505,6.975-1,10.153-1.458s6.02-.878,8.25-1.239a9.068,9.068,0,0,0,1.638-.35,1.749,1.749,0,0,0,.908-.748,9.87,9.87,0,0,0,.793-1.765c.313-.826.71-1.925,1.291-3.4.293-.744.565-1.42.828-2.06s.517-1.242.776-1.839.524-1.188.807-1.806.585-1.259.919-1.958c.5-1.041.972-1.972,1.444-2.837s.942-1.664,1.432-2.44,1-1.53,1.548-2.3,1.139-1.568,1.79-2.425A48.628,48.628,0,0,1,54,54.311a42.388,42.388,0,0,1,3.148-3.033c1.07-.933,2.179-1.817,3.375-2.735s2.473-1.867,3.887-2.934c.246-.186.492-.366.737-.543s.489-.353.732-.531.486-.359.729-.546.484-.383.725-.59c1.156-.992,2.29-2.013,3.39-3.073s2.163-2.154,3.18-3.3,1.985-2.327,2.894-3.569a41.205,41.205,0,0,0,2.534-3.891c.512-.9,1.372-2.527,2.38-4.506s2.162-4.3,3.268-6.578,2.159-4.512,2.97-6.323a28.857,28.857,0,0,0,1.506-3.777c-.8-.075-1.6-.1-2.4-.1s-1.6.032-2.4.065-1.6.07-2.385.087-1.573.015-2.346-.031c-1.609-.095-3.8-.137-6.3-.147s-5.315.012-8.145.046-5.7.08-8.294.117-4.919.065-6.663.062Z" transform="translate(0 -0.002)" fill="#219862"/>
      </g>
      <g id="Grupo_1114" data-name="Grupo 1114" transform="translate(221.037 372.898)">
        <path id="Caminho_886" data-name="Caminho 886" d="M9.615,2.023A13.605,13.605,0,0,0,6.106,4,15.876,15.876,0,0,0,3.085,7.066,15.418,15.418,0,0,0,.947,10.991a13.863,13.863,0,0,0-.854,4.535,10.247,10.247,0,0,0,.8,4.323,7.07,7.07,0,0,0,2.313,2.923A6.661,6.661,0,0,0,6.651,24a9.273,9.273,0,0,0,4.2-.747,14.139,14.139,0,0,0,6.975-6.2A15.119,15.119,0,0,0,19.784,8.9,8.546,8.546,0,0,0,17,2.607C15.293,1.24,12.823.826,9.615,2.023Z" transform="translate(25.75 19.281)" fill="#79d5a4"/>
        <path id="Caminho_882" data-name="Caminho 882" d="M19.054,21.67c2.956-1.1,5.232-.723,6.8.536a7.875,7.875,0,0,1,2.571,5.8,13.935,13.935,0,0,1-1.809,7.513,13.017,13.017,0,0,1-6.43,5.71,8.523,8.523,0,0,1-3.864.684,6.14,6.14,0,0,1-3.172-1.134,6.515,6.515,0,0,1-2.129-2.694,9.454,9.454,0,0,1-.736-3.982,12.778,12.778,0,0,1,.786-4.175,14.2,14.2,0,0,1,1.967-3.615,14.622,14.622,0,0,1,2.782-2.826A12.54,12.54,0,0,1,19.054,21.67ZM.211,27.87l7.273,3.924c-.043.747-.095,1.457-.139,2.146S7.263,35.3,7.25,35.963s0,1.325.047,2a16.232,16.232,0,0,0,.285,2.069,11.2,11.2,0,0,0,.528,1.84,8.7,8.7,0,0,0,.635,1.3c.223.376.452.712.678,1.059a11.032,11.032,0,0,1,.656,1.124,10.438,10.438,0,0,0,7.639,2.2,14.819,14.819,0,0,0,6.9-3.175,49.644,49.644,0,0,0,6.219-5.892c1.961-2.125,3.818-4.272,5.575-6.017.5-.5,1-.98,1.482-1.445s.964-.915,1.444-1.359.961-.882,1.451-1.322.988-.881,1.5-1.333a41.312,41.312,0,0,1,4.254-3.266,40.679,40.679,0,0,1,4.662-2.7,32.561,32.561,0,0,1,4.779-1.919,21.813,21.813,0,0,1,4.615-.924,11.225,11.225,0,0,1,1.169-.034c.352.008.673.03.985.053s.614.047.929.058a8.824,8.824,0,0,0,1-.018,23.093,23.093,0,0,0-3.146-2.337c-1.764-1.2-4.078-2.718-6.432-4.245s-4.77-3.075-6.7-4.307S45.029,5.2,44.588,4.917a5.127,5.127,0,0,0-2.124-.744,10.712,10.712,0,0,0-2.51-.006,26.576,26.576,0,0,0-2.678.433c-.9.185-1.784.393-2.624.574a27.428,27.428,0,0,0-7.748,3,42.1,42.1,0,0,0-6.517,4.646c-2,1.7-3.853,3.5-5.6,5.2s-3.4,3.317-5.015,4.65c-.547.453-1.215.967-1.962,1.493s-1.573,1.065-2.43,1.565a23.772,23.772,0,0,1-2.625,1.336A12.091,12.091,0,0,1,.211,27.87Z" transform="translate(16.652 0.004)" fill="#219762"/>
        <path id="Caminho_888" data-name="Caminho 888" d="M26.731,30.131a10.965,10.965,0,0,0-.657-1.123c-.226-.346-.456-.683-.678-1.059a8.761,8.761,0,0,1-.635-1.3,11.245,11.245,0,0,1-.528-1.841,16.272,16.272,0,0,1-.285-2.068c-.05-.672-.06-1.332-.047-2s.05-1.333.1-2.023.1-1.4.139-2.147L16.863,12.65.515,4.519C.507,5.432.42,6.342.343,7.271a24.031,24.031,0,0,0-.106,2.862,12.019,12.019,0,0,0,.5,3.091,13.179,13.179,0,0,0,1.642,3.432,13.906,13.906,0,0,0,3.314,2.408c1.74,1.053,3.965,2.289,6.23,3.505s4.554,2.4,6.455,3.376,3.4,1.726,4.084,2.07c.3.154.649.352,1.012.565s.746.442,1.128.658.764.416,1.125.575A4.043,4.043,0,0,0,26.731,30.131Z" transform="translate(0 15.223)" fill="#19724a"/>
      </g>
      <g id="Grupo_1115" data-name="Grupo 1115" transform="translate(366.006 -0.006)">
        <path id="Caminho_887" data-name="Caminho 887" d="M8.325,19.448l1.931-3.72L12.1,16.816A3.508,3.508,0,0,0,13.3,15.1a9.823,9.823,0,0,0,.565-2.863,14.535,14.535,0,0,0-.223-3.484,13.949,13.949,0,0,0-1.167-3.585,8.391,8.391,0,0,0-1.492-2.114A7.976,7.976,0,0,0,8.868,1.471,5.871,5.871,0,0,0,6.373.809a5.082,5.082,0,0,0-2.63.657A7.021,7.021,0,0,0,.629,5.653a12.656,12.656,0,0,0-.295,5.983A10.812,10.812,0,0,0,2.9,17.024,7.457,7.457,0,0,0,8.325,19.448Z" transform="translate(19.71 24.775)" fill="#79d5a4"/>
        <path id="Caminho_879" data-name="Caminho 879" d="M24.81,50.27a7.013,7.013,0,0,0,.763-1.192c.3-.552.637-1.226.959-1.923s.632-1.417.885-2.062a13.29,13.29,0,0,0,.543-1.612,7.037,7.037,0,0,1-5.115-2.29,10.2,10.2,0,0,1-2.419-5.082,11.935,11.935,0,0,1,.278-5.64,6.619,6.619,0,0,1,2.936-3.947,4.792,4.792,0,0,1,2.48-.621,5.542,5.542,0,0,1,2.353.623,7.525,7.525,0,0,1,1.995,1.493,7.919,7.919,0,0,1,1.407,1.994,13.166,13.166,0,0,1,1.1,3.383,13.715,13.715,0,0,1,.21,3.287,9.253,9.253,0,0,1-.533,2.7A3.309,3.309,0,0,1,31.523,41a2.441,2.441,0,0,0,.757.518,4.05,4.05,0,0,0,.945.287,5.235,5.235,0,0,0,.992.082,4.466,4.466,0,0,0,.9-.1,4.284,4.284,0,0,0,.937-.32,5.07,5.07,0,0,0,.718-.426c.217-.151.419-.309.628-.458a5.045,5.045,0,0,1,.666-.415,3.277,3.277,0,0,0,.721-2.441,15.688,15.688,0,0,0-.564-3.594,36.007,36.007,0,0,0-1.183-3.672C36.613,29.347,36.2,28.4,35.9,27.8a56.95,56.95,0,0,0-2.948-5.255c-1.047-1.656-2.155-3.22-3.317-4.716S27.258,14.9,26,13.51s-2.575-2.736-3.922-4.061c-.7-.685-1.4-1.342-2.1-1.981S18.557,6.205,17.841,5.59,16.4,4.365,15.676,3.752s-1.463-1.23-2.2-1.86c-.118.27-.232.505-.346.721s-.228.413-.346.607-.242.385-.374.589-.274.42-.43.665L.275,23.5a10.939,10.939,0,0,1,1.756,1.024c.643.443,1.327.966,2,1.512s1.337,1.112,1.939,1.641S7.115,28.7,7.546,29.1c2.045,1.874,3.483,3.25,4.577,4.362s1.844,1.958,2.515,2.773,1.261,1.594,2.03,2.569,1.713,2.138,3.092,3.72c.238.274.47.567.7.872s.448.622.666.943.433.648.648.971.428.644.642.956c.147.213.261.387.357.54s.174.287.249.421.146.268.229.423.177.329.3.544.231.393.339.559.212.316.315.467.2.3.3.474S24.706,50.049,24.81,50.27Z" transform="translate(0)" fill="#219762"/>
        <path id="Caminho_889" data-name="Caminho 889" d="M11.634,2.9,9.893,1.869,8.072,5.376a13.309,13.309,0,0,1-.543,1.612c-.253.645-.563,1.365-.885,2.062s-.657,1.371-.959,1.923a7.037,7.037,0,0,1-.763,1.191L1.158,20.613c-.107.222-.227.458-.349.7s-.245.5-.358.768a7.146,7.146,0,0,0-.293.8A4.012,4.012,0,0,0,0,23.7a6.251,6.251,0,0,0,3.663.515,4.9,4.9,0,0,0,2.6-1.606A16.989,16.989,0,0,0,8.39,19.483c.693-1.231,1.4-2.616,2.227-4.06.161-.282.315-.555.467-.824l.452-.8c.151-.268.3-.538.463-.816s.324-.564.5-.863.336-.581.492-.858.3-.547.453-.814.3-.534.449-.8.31-.542.479-.823c.159-.266.464-.766.836-1.382s.809-1.345,1.233-2.068.833-1.439,1.149-2.029a7.207,7.207,0,0,0,.588-1.272,4.992,4.992,0,0,0-.665.414c-.209.15-.411.306-.628.458a5.038,5.038,0,0,1-.718.427,4.276,4.276,0,0,1-.936.32,4.489,4.489,0,0,1-.9.1,5.21,5.21,0,0,1-.993-.082,4.038,4.038,0,0,1-.945-.287A2.44,2.44,0,0,1,11.634,2.9Z" transform="translate(19.889 38.104)" fill="#19724a"/>
      </g>
      <g id="Grupo_1116" data-name="Grupo 1116" transform="translate(0.001 319.684)">
        <g id="Grupo_439" data-name="Grupo 439" transform="translate(25.049 14.932)">
          <path id="Caminho_892" data-name="Caminho 892" d="M5.537.962A6.992,6.992,0,0,0,.9,4.434,5.329,5.329,0,0,0,.987,9.029a7.186,7.186,0,0,0,3.673,3.482,8.585,8.585,0,0,0,6.086.17,6.05,6.05,0,0,0,3.983-3.329,5.8,5.8,0,0,0-.1-4.506,7.01,7.01,0,0,0-3.337-3.526A7.788,7.788,0,0,0,5.537.962Z" transform="translate(10.958 24.166)" fill="#79d5a4"/>
          <path id="Caminho_881" data-name="Caminho 881" d="M16.513,25.264a7.546,7.546,0,0,1,5.573.346,6.793,6.793,0,0,1,3.234,3.417,5.62,5.62,0,0,1,.1,4.367,5.862,5.862,0,0,1-3.86,3.226,8.319,8.319,0,0,1-5.9-.166,6.963,6.963,0,0,1-3.559-3.374,5.163,5.163,0,0,1-.083-4.451A6.774,6.774,0,0,1,16.513,25.264ZM1.575,19.09A17.388,17.388,0,0,0,2.414,23.1,19.841,19.841,0,0,0,3.955,26.55a24.629,24.629,0,0,0,1.9,2.866c.655.857,1.314,1.617,1.921,2.279a27.733,27.733,0,0,0,2.963,2.547c1.124.85,2.36,1.686,3.63,2.466s2.569,1.5,3.827,2.118a30.769,30.769,0,0,0,3.562,1.51c.7.239,1.388.472,2.077.694s1.377.434,2.078.633,1.416.385,2.156.555,1.505.325,2.309.461a38.356,38.356,0,0,0,11.58.241,39.724,39.724,0,0,0,10.5-2.961,55.32,55.32,0,0,0,9.706-5.5,93.314,93.314,0,0,0,9.174-7.4,4.625,4.625,0,0,1,.639-.5,1.7,1.7,0,0,0,.319-.223.715.715,0,0,0,.152-.368c.04-.193.077-.48.137-.929a2.571,2.571,0,0,1-.793-.315,5.28,5.28,0,0,1-.758-.564c-.26-.225-.533-.484-.84-.772s-.647-.6-1.04-.938L53.966,9.225c-.184-.159-.341-.287-.485-.4s-.274-.215-.4-.317-.262-.206-.409-.328-.307-.261-.5-.434l-7.185-6c-.47.932-.963,2.385-1.627,4.113a42.581,42.581,0,0,1-2.652,5.778,25.872,25.872,0,0,1-4.58,5.99,22.692,22.692,0,0,1-7.444,4.751,23.762,23.762,0,0,1-5.416,1.436A25.847,25.847,0,0,1,17.86,24a31.861,31.861,0,0,1-5.33-.839,42.132,42.132,0,0,1-5.178-1.631c-.224-.086-.465-.172-.716-.261s-.511-.179-.772-.274-.524-.194-.779-.3-.5-.217-.736-.336c-.278-.143-.506-.275-.713-.4s-.392-.235-.585-.339a4.91,4.91,0,0,0-.63-.288,6.308,6.308,0,0,0-.848-.244Z" fill="#219862"/>
        </g>
        <path id="Caminho_884" data-name="Caminho 884" d="M33.183,46.971s-.351-.452-.884-1.219-1.252-1.852-1.987-3.116a33.211,33.211,0,0,1-2.085-4.2,15.918,15.918,0,0,1-1.17-4.448c-.074-.794-.117-1.64-.129-2.507s.008-1.756.061-2.635.138-1.746.257-2.572a20.6,20.6,0,0,1,.462-2.321c.092-.346.178-.622.256-.865s.151-.453.215-.667a6.349,6.349,0,0,0,.168-.688,8.877,8.877,0,0,0,.116-.927c-1.039-.665-3.011-2.154-5.422-4.027s-5.285-4.145-8.1-6.35-5.59-4.365-7.792-6a22.966,22.966,0,0,0-4.39-2.866,23.8,23.8,0,0,0,1.28,6.168,72.066,72.066,0,0,0,2.952,7.537c1.158,2.564,2.439,5.1,3.69,7.341a55.857,55.857,0,0,0,3.508,5.611l4.057,5.255c1.35,1.39,2.789,2.788,4.187,4.1s2.75,2.541,3.935,3.6,2.2,1.933,2.917,2.549,1.141.969,1.141.969Z" fill="#19724a"/>
      </g>
    </g>
  </g>
</svg>
